<svg xmlns="http://www.w3.org/2000/svg" width="56" height="49" viewBox="0 0 56 49"><defs><style>.a{fill:#e33f35;}.b{fill:#fff;}</style></defs><g transform="translate(1 0)"><g transform="translate(-40.796 -229.796)"><rect class="a" width="34" height="34" rx="9" transform="translate(50.796 229.796)"/><ellipse class="a" cx="13" cy="2" rx="13" ry="2" transform="translate(54.796 259.796)"/></g><g transform="translate(21 9)"><path class="b" d="M4,16.7a5.98,5.98,0,1,1,11.96,0h-1.5a4.485,4.485,0,1,0-8.97,0ZM9.98,9.97a4.485,4.485,0,1,1,4.485-4.485A4.484,4.484,0,0,1,9.98,9.97Zm0-1.495a2.99,2.99,0,1,0-2.99-2.99A2.989,2.989,0,0,0,9.98,8.475Z" transform="translate(-4 -1)"/></g></g></svg>