<svg xmlns="http://www.w3.org/2000/svg" width="12.923" height="12.923" viewBox="0 0 12.923 12.923"><defs><style>.a{fill:none;}.b{fill:#fff;}</style></defs><path class="a" d="M0,0H12.923V12.923H0Z"/><path class="b" d="M9.312,5.123,6.267,8.169a.538.538,0,1,0,.761.761l3.046-3.046A1.616,1.616,0,1,0,7.79,3.6L4.744,6.646a2.692,2.692,0,1,0,3.808,3.807L11.6,7.408l.761.761L9.312,11.215A3.769,3.769,0,0,1,3.982,5.884L7.028,2.839a2.692,2.692,0,1,1,3.807,3.807L7.79,9.693A1.616,1.616,0,0,1,5.5,7.408L8.551,4.362l.761.761Z" transform="translate(-1.328 -0.946)"/></svg>