<svg xmlns="http://www.w3.org/2000/svg" width="17.348" height="17.348" viewBox="0 0 17.348 17.348"><defs><style>.a{fill:none;}.b{fill:#fff;}</style></defs><path class="a" d="M0,0H17.348V17.348H0Z"/><path class="b" d="M16.011,12.7v2.556a.723.723,0,0,1-.672.721c-.316.022-.574.033-.773.033A11.565,11.565,0,0,1,3,4.446q0-.3.033-.773A.723.723,0,0,1,3.755,3H6.311a.361.361,0,0,1,.36.325c.017.166.032.3.046.4A10.048,10.048,0,0,0,7.59,6.616a.329.329,0,0,1-.106.41L5.924,8.141a9.431,9.431,0,0,0,4.947,4.947l1.113-1.557a.334.334,0,0,1,.414-.108,10.048,10.048,0,0,0,2.891.871c.1.014.233.03.4.046a.361.361,0,0,1,.325.36Z" transform="translate(-0.832 -0.832)"/></svg>