<svg xmlns="http://www.w3.org/2000/svg" width="12.308" height="12.308" viewBox="0 0 12.308 12.308"><defs><style>.a{fill:none;}.b{fill:#52596c;}</style></defs><path class="a" d="M0,0H12.308V12.308H0Z"/><path class="b" d="M9.693,2.026h2.051a.513.513,0,0,1,.513.513v8.205a.513.513,0,0,1-.513.513H2.513A.513.513,0,0,1,2,10.744V2.539a.513.513,0,0,1,.513-.513H4.564V1H5.59V2.026H8.667V1H9.693ZM8.667,3.051H5.59V4.077H4.564V3.051H3.026V5.1h8.205V3.051H9.693V4.077H8.667Zm2.564,3.077H3.026v4.1h8.205Z" transform="translate(-0.974 -0.487)"/></svg>