<svg xmlns="http://www.w3.org/2000/svg" width="56" height="49" viewBox="0 0 56 49"><defs><style>.a{fill:#16aaff;}.b{fill:#fff;}</style></defs><g transform="translate(1 -199)"><g transform="translate(-40.796 -30.796)"><rect class="a" width="34" height="34" rx="9" transform="translate(50.796 229.796)"/><ellipse class="a" cx="13" cy="2" rx="13" ry="2" transform="translate(54.796 259.796)"/></g><path class="b" d="M2.805,3H17.3a.758.758,0,0,1,.805.7V14.89a.758.758,0,0,1-.805.7H2.805A.758.758,0,0,1,2,14.89V3.7A.758.758,0,0,1,2.805,3ZM16.493,5.964,10.109,10.93,3.61,5.949v8.242H16.493ZM4.022,4.4,10.1,9.058,16.092,4.4Z" transform="translate(17 207)"/></g></svg>