<svg xmlns="http://www.w3.org/2000/svg" width="24" height="24" viewBox="0 0 24 24"><defs><style>.a{fill:none;}.b{fill:#7850d4;}.c{fill:#fff;}</style></defs><g transform="translate(-318 -674)"><g transform="translate(318 674)"><path class="a" d="M0,0H24V24H0Z"/><path class="b" d="M18,19h1V6.828L17.172,5H16V9H7V5H5V19H6V12H18ZM4,3H18l2.707,2.707A1,1,0,0,1,21,6.414V20a1,1,0,0,1-1,1H4a1,1,0,0,1-1-1V4A1,1,0,0,1,4,3ZM8,14v5h8V14Z"/></g><rect class="c" width="5" height="2" transform="translate(327 679)"/></g></svg>