<svg xmlns="http://www.w3.org/2000/svg" width="15.277" height="15.277" viewBox="0 0 15.277 15.277"><defs><style>.a{fill:none;}.b{fill:#7481a5;}</style></defs><g transform="translate(0 0)"><path class="a" d="M0,0H15.277V15.277H0Z" transform="translate(0 0)"/><path class="b" d="M11.548,4.546H14.73V5.819H13.457v8.275a.637.637,0,0,1-.637.637H3.91a.637.637,0,0,1-.637-.637V5.819H2V4.546H5.183V2.637A.637.637,0,0,1,5.819,2h5.092a.637.637,0,0,1,.637.637Zm.637,1.273H4.546v7.638h7.638ZM6.456,3.273V4.546h3.819V3.273Z" transform="translate(-0.727 -0.727)"/></g></svg>