<svg xmlns="http://www.w3.org/2000/svg" width="56" height="49" viewBox="0 0 56 49"><defs><style>.a{fill:#1ac256;}.b{fill:#fff;}</style></defs><g transform="translate(1 -134)"><g transform="translate(-40.796 -95.796)"><rect class="a" width="34" height="34" rx="9" transform="translate(50.796 229.796)"/><ellipse class="a" cx="13" cy="2" rx="13" ry="2" transform="translate(54.796 259.796)"/></g><path class="b" d="M7.323,3.9H18.561V5.5H7.323Zm-3.026,2A1.252,1.252,0,0,1,3,4.7,1.252,1.252,0,0,1,4.3,3.5a1.252,1.252,0,0,1,1.3,1.2A1.252,1.252,0,0,1,4.3,5.906Zm0,5.613a1.206,1.206,0,1,1,0-2.406,1.206,1.206,0,1,1,0,2.406Zm0,5.533a1.206,1.206,0,1,1,0-2.406,1.206,1.206,0,1,1,0,2.406ZM7.323,9.514H18.561v1.6H7.323Zm0,5.613H18.561v1.6H7.323Z" transform="translate(16.225 140.963)"/></g></svg>