<svg xmlns="http://www.w3.org/2000/svg" width="14" height="14" viewBox="0 0 14 14"><defs><style>.a{fill:rgba(255,255,255,0);}.b{fill:none;}.c{fill:#434a5e;}</style></defs><g transform="translate(1.365 2)"><rect class="a" width="14" height="14" transform="translate(-1.365 -2)"/><g transform="translate(0.635)"><path class="b" d="M0,0H10.569V10.569H0Z"/><path class="c" d="M7.285,3.808a3.17,3.17,0,0,1,4.48,4.473L7.284,12.768,2.8,8.281A3.171,3.171,0,0,1,7.285,3.808Zm3.607.867a2.113,2.113,0,0,0-2.9-.081l-.705.633-.706-.633a2.114,2.114,0,0,0-3,2.962l3.71,3.715,3.71-3.715a2.114,2.114,0,0,0-.1-2.882Z" transform="translate(-2 -2.493)"/></g></g></svg>