<svg xmlns="http://www.w3.org/2000/svg" width="14" height="14" viewBox="0 0 14 14"><defs><style>.a{fill:none;}.b{fill:#fff;}</style></defs><path class="a" d="M0,0H14V14H0Z"/><path class="b" d="M7.2,12.453,4.23,9.391a4.424,4.424,0,0,1,0-6.123,4.113,4.113,0,0,1,5.941,0,4.424,4.424,0,0,1,0,6.123ZM9.511,8.711a3.441,3.441,0,0,0,0-4.762,3.287,3.287,0,0,0-4.163-.393,2.383,2.383,0,0,0-.458.393,3.441,3.441,0,0,0,0,4.762L7.2,11.092,9.511,8.711ZM7.2,6.858A.963.963,0,1,1,8.134,5.9.948.948,0,0,1,7.2,6.858Z" transform="translate(-0.201 0.105)"/></svg>