<svg xmlns="http://www.w3.org/2000/svg" width="207.795" height="181.209" viewBox="0 0 207.795 181.209"><defs><style>.a{fill:#8f9bbe;}.b,.d,.f{fill:none;}.c{fill:rgba(180,187,206,0.39);}.c,.d,.e,.f{stroke:#b4bbce;}.c,.d,.e{stroke-width:2.5px;}.e{fill:#eff0f4;}.f{stroke-linecap:round;stroke-width:3px;}.g{fill:rgba(180,187,206,0.22);}.h{stroke:none;}</style></defs><g transform="translate(-101 -242)"><g transform="translate(141.103 283.482)"><g transform="translate(106.312 22.345)"><path class="a" d="M88.471,21.775Z" transform="translate(-88.471 -20.844)"/><path class="a" d="M85.324,48.949Z" transform="translate(-85.324 -15.776)"/></g><g transform="translate(2 10)"><path class="a" d="M102.519,10H41.829A13.291,13.291,0,0,0,28.553,23.276V36.552h-1.9A24.642,24.642,0,0,0,19.07,84.644v14.5a1.9,1.9,0,0,0,3.237,1.341L36.924,85.863h4.9A24.735,24.735,0,0,0,62.57,74.484h9.346l21.558,25.869a1.9,1.9,0,0,0,1.458.683,1.921,1.921,0,0,0,.647-.114,1.9,1.9,0,0,0,1.25-1.783V74.484h5.69A13.291,13.291,0,0,0,115.8,61.208V23.276A13.291,13.291,0,0,0,102.519,10ZM41.829,82.07h-5.69a1.9,1.9,0,0,0-1.341.555L22.863,94.561V83.219a1.9,1.9,0,0,0-1.422-1.836,20.849,20.849,0,0,1,5.216-41.038h1.9V51.725h-5.69a1.9,1.9,0,1,0,0,3.793h5.69v5.69H15.277a1.9,1.9,0,1,0,0,3.793H29.122a13.276,13.276,0,0,0,3.444,5.69H24.923a1.9,1.9,0,1,0,0,3.793H57.849a20.9,20.9,0,0,1-16.02,7.586ZM112,61.208a9.494,9.494,0,0,1-9.483,9.483H94.933a1.9,1.9,0,0,0-1.9,1.9V93.9L74.26,71.373a1.9,1.9,0,0,0-1.458-.683H41.829a9.494,9.494,0,0,1-9.483-9.483V23.276a9.494,9.494,0,0,1,9.483-9.483h60.691A9.494,9.494,0,0,1,112,23.276Z" transform="translate(-2 -10)"/><path class="a" d="M82.273,14H25.338A5.287,5.287,0,0,0,20,19.236v34.9a5.287,5.287,0,0,0,5.338,5.236H82.273a5.287,5.287,0,0,0,5.338-5.236v-34.9A5.287,5.287,0,0,0,82.273,14Zm1.779,40.139a1.762,1.762,0,0,1-1.779,1.745H25.338a1.762,1.762,0,0,1-1.779-1.745v-34.9a1.762,1.762,0,0,1,1.779-1.745H82.273a1.762,1.762,0,0,1,1.779,1.745Z" transform="translate(16.369 -4.445)"/><path class="a" d="M34.9,21.793H61.449a1.9,1.9,0,1,0,0-3.793H34.9a1.9,1.9,0,0,0,0,3.793Z" transform="translate(21.549 2.48)"/><path class="a" d="M75.311,28H27.9a1.9,1.9,0,1,0,0,3.793H75.311a1.9,1.9,0,1,0,0-3.793Z" transform="translate(19.519 2.954)"/><path class="a" d="M65.035,33H30.9a1.9,1.9,0,1,0,0,3.793H65.035a1.9,1.9,0,1,0,0-3.793Z" transform="translate(22.209 8.499)"/></g></g><path class="b" d="M2539.084,421.908a13.249,13.249,0,0,1-.981-12.7l-12.224,7.909a13.382,13.382,0,0,1-18.47-3.911,13.248,13.248,0,0,1-1.02-12.614l-21.936,14.193a13.317,13.317,0,1,1-14.543-22.313l18.4-11.906a13.309,13.309,0,0,1-12.228-18.76l-13.243,8.569A13.317,13.317,0,1,1,2448.3,348.06l31.7-20.513a13.3,13.3,0,0,1-6.177-24.416l47.845-30.956a13.382,13.382,0,0,1,18.47,3.911,13.238,13.238,0,0,1,1.4,11.642l29.93-19.365a13.317,13.317,0,1,1,14.543,22.313l-13.312,8.613a13.31,13.31,0,0,1,12.229,18.759l18.331-11.861a13.318,13.318,0,1,1,14.544,22.314l-14.662,9.487a13.3,13.3,0,0,1,7.225,24.46l-12.293,7.954a13.3,13.3,0,0,1,7.321,24.461l-47.845,30.956a13.379,13.379,0,0,1-18.469-3.911Z" transform="translate(-2338.456 -12.167)"/><g class="c" transform="translate(249 396)"><circle class="h" cx="7" cy="7" r="7"/><circle class="b" cx="7" cy="7" r="5.75"/></g><g class="d" transform="translate(198 242)"><circle class="h" cx="7" cy="7" r="7"/><circle class="b" cx="7" cy="7" r="5.75"/></g><g class="c" transform="translate(115 321)"><circle class="h" cx="8" cy="8" r="8"/><circle class="b" cx="8" cy="8" r="6.75"/></g><g class="e" transform="translate(290 319)"><circle class="h" cx="5" cy="5" r="5"/><circle class="b" cx="5" cy="5" r="3.75"/></g><g class="d" transform="translate(101 393)"><circle class="h" cx="5" cy="5" r="5"/><circle class="b" cx="5" cy="5" r="3.75"/></g><g transform="translate(137 -209)"><path class="f" d="M-2275.177,227.78h7.472" transform="translate(2438 262)"/><path class="f" d="M-2275.177,227.78h7.472" transform="translate(394.339 2761.221) rotate(90)"/></g><g transform="translate(119 -111)"><path class="f" d="M-2275.177,227.78h7.472" transform="translate(2438 262)"/><path class="f" d="M-2275.177,227.78h7.472" transform="translate(394.339 2761.221) rotate(90)"/></g><g transform="translate(-4.193 -70.193)"><path class="f" d="M-2275.177,227.78h5.859" transform="translate(2438 261.193)"/><path class="f" d="M0,0H5.859" transform="translate(165.753 486.044) rotate(90)"/></g><g transform="translate(-19.044 -230.044)"><path class="f" d="M-2275.177,227.78h5.56" transform="translate(2438 261.044)"/><path class="f" d="M0,0H5.56" transform="translate(165.603 486.044) rotate(90)"/></g><path class="g" d="M2539.084,421.908a13.249,13.249,0,0,1-.981-12.7l-12.224,7.909a13.382,13.382,0,0,1-18.47-3.911,13.248,13.248,0,0,1-1.02-12.614l-21.936,14.193a13.317,13.317,0,1,1-14.543-22.313l18.4-11.906a13.309,13.309,0,0,1-12.228-18.76l-13.243,8.569A13.317,13.317,0,1,1,2448.3,348.06l31.7-20.513a13.3,13.3,0,0,1-6.177-24.416l47.845-30.956a13.382,13.382,0,0,1,18.47,3.911,13.238,13.238,0,0,1,1.4,11.642l29.93-19.365a13.317,13.317,0,1,1,14.543,22.313l-13.312,8.613a13.31,13.31,0,0,1,12.229,18.759l18.331-11.861a13.318,13.318,0,1,1,14.544,22.314l-14.662,9.487a13.3,13.3,0,0,1,7.225,24.46l-12.293,7.954a13.3,13.3,0,0,1,7.321,24.461l-47.845,30.956a13.379,13.379,0,0,1-18.469-3.911Z" transform="translate(-2336.215 -9.215)"/></g></svg>