<svg xmlns="http://www.w3.org/2000/svg" width="207.795" height="181.209" viewBox="0 0 207.795 181.209"><defs><style>.a{fill:#8f9bbe;}.b,.c,.e,.g{fill:none;}.b{stroke:#8f9bbe;}.b,.g{stroke-linecap:round;stroke-width:3px;}.d{fill:rgba(180,187,206,0.39);}.d,.e,.f,.g{stroke:#b4bbce;}.d,.e,.f{stroke-width:2.5px;}.f{fill:#eff0f4;}.h{fill:rgba(180,187,206,0.22);}.i{stroke:none;}</style></defs><g transform="translate(-101 -242)"><g transform="translate(3212 -1496)"><g transform="translate(-3050 1779)"><path class="a" d="M83.528,92.65Zm-33.222,0" transform="translate(-4.843 -3.474)"/><path class="a" d="M340.336,195.952l-9.086-5.246Zm6.651-32.5" transform="translate(-258.849 -127.733)"/><path class="a" d="M440.425,104.511" transform="translate(-339.017 -81.307)"/><g transform="translate(0 0)"><path class="a" d="M80.433,15.58V5.285A5.246,5.246,0,0,0,75.187.04H5.245A5.246,5.246,0,0,0,0,5.285V99.706a5.245,5.245,0,0,0,5.246,5.246H75.187a5.245,5.245,0,0,0,5.246-5.246V15.58Zm-3.5,84.127a1.748,1.748,0,0,1-1.749,1.749H5.245A1.748,1.748,0,0,1,3.5,99.706V5.285A1.749,1.749,0,0,1,5.245,3.537H75.187a1.749,1.749,0,0,1,1.749,1.749V51.656c-.183,3.379.207,14.067.07,24.97ZM80.975,65.96Z" transform="translate(0 -0.04)"/><path class="a" d="M79.96,357.835l-7.329,7.433-3.259-3.14a1.75,1.75,0,1,0-2.466,2.483l3.259,3.14a3.525,3.525,0,0,0,4.949,0l7.312-7.45a1.749,1.749,0,0,0-2.466-2.466Zm0,0" transform="translate(-52.631 -278.637)"/><path class="a" d="M46.863,312.039A14.863,14.863,0,1,0,61.725,326.9,14.863,14.863,0,0,0,46.863,312.039Zm0,26.228A11.366,11.366,0,1,1,58.228,326.9,11.366,11.366,0,0,1,46.863,338.267Zm0,0" transform="translate(-25.006 -243.846)"/><path class="a" d="M73.749,58.53h45.462a1.748,1.748,0,0,0,1.749-1.749V49.788a1.749,1.749,0,0,0-1.749-1.749H73.749A1.749,1.749,0,0,0,72,49.788v6.994A1.748,1.748,0,0,0,73.749,58.53ZM75.5,51.536h41.965v3.5H75.5Zm0,0" transform="translate(-56.263 -37.548)"/><path class="a" d="M134.468,113.788a1.749,1.749,0,0,0-1.749-1.749H97.749a1.749,1.749,0,1,0,0,3.5h34.971A1.748,1.748,0,0,0,134.468,113.788Zm0,0" transform="translate(-75.017 -87.56)"/><path class="a" d="M128,169.788a1.685,1.685,0,0,0,1.614,1.749h35.5a1.754,1.754,0,0,0,0-3.5h-35.5A1.685,1.685,0,0,0,128,169.788Zm0,0" transform="translate(-116.023 -131.32)"/><path class="a" d="M57.749,219.536H92.719a1.749,1.749,0,1,0,0-3.5H57.749a1.749,1.749,0,1,0,0,3.5Zm0,0" transform="translate(-43.76 -168.828)"/><path class="a" d="M57.749,259.536h34.6a1.749,1.749,0,1,0,0-3.5h-34.6a1.749,1.749,0,1,0,0,3.5Zm0,0" transform="translate(-43.76 -200.086)"/><path class="a" d="M183.737,257.788a1.749,1.749,0,0,0-1.749-1.749h-6a1.749,1.749,0,1,0,0,3.5h6A1.748,1.748,0,0,0,183.737,257.788Zm0,0" transform="translate(-114.281 -200.086)"/><path class="a" d="M183.737,257.788a1.749,1.749,0,0,0-1.749-1.749h-6a1.749,1.749,0,1,0,0,3.5h6A1.748,1.748,0,0,0,183.737,257.788Zm0,0" transform="translate(-114.281 -209.086)"/><path class="a" d="M183.737,257.788a1.749,1.749,0,0,0-1.749-1.749h-6a1.749,1.749,0,1,0,0,3.5h6A1.748,1.748,0,0,0,183.737,257.788Zm0,0" transform="translate(-114.281 -219.086)"/></g></g><path class="b" d="M-3006.786,1860.1l4.456-8.57s-1.542,16.454,3.428,12.855,2.229-4.8,6.342-2.742,2.571-1.714,5.313-1.543,1.028-1.543,2.914,1.543-4.456,6.17-4.456,6.17" transform="translate(1.438 2.414)"/></g><path class="c" d="M2539.084,421.908a13.249,13.249,0,0,1-.981-12.7l-12.224,7.909a13.382,13.382,0,0,1-18.47-3.911,13.248,13.248,0,0,1-1.02-12.614l-21.936,14.193a13.317,13.317,0,1,1-14.543-22.313l18.4-11.906a13.309,13.309,0,0,1-12.228-18.76l-13.243,8.569A13.317,13.317,0,1,1,2448.3,348.06l31.7-20.513a13.3,13.3,0,0,1-6.177-24.416l47.845-30.956a13.382,13.382,0,0,1,18.47,3.911,13.238,13.238,0,0,1,1.4,11.642l29.93-19.365a13.317,13.317,0,1,1,14.543,22.313l-13.312,8.613a13.31,13.31,0,0,1,12.229,18.759l18.331-11.861a13.318,13.318,0,1,1,14.544,22.314l-14.662,9.487a13.3,13.3,0,0,1,7.225,24.46l-12.293,7.954a13.3,13.3,0,0,1,7.321,24.461l-47.845,30.956a13.379,13.379,0,0,1-18.469-3.911Z" transform="translate(-2338.456 -12.167)"/><g class="d" transform="translate(249 396)"><circle class="i" cx="7" cy="7" r="7"/><circle class="c" cx="7" cy="7" r="5.75"/></g><g class="e" transform="translate(198 242)"><circle class="i" cx="7" cy="7" r="7"/><circle class="c" cx="7" cy="7" r="5.75"/></g><g class="d" transform="translate(115 321)"><circle class="i" cx="8" cy="8" r="8"/><circle class="c" cx="8" cy="8" r="6.75"/></g><g class="f" transform="translate(290 319)"><circle class="i" cx="5" cy="5" r="5"/><circle class="c" cx="5" cy="5" r="3.75"/></g><g class="e" transform="translate(101 393)"><circle class="i" cx="5" cy="5" r="5"/><circle class="c" cx="5" cy="5" r="3.75"/></g><g transform="translate(137 -209)"><path class="g" d="M-2275.177,227.78h7.472" transform="translate(2438 262)"/><path class="g" d="M-2275.177,227.78h7.472" transform="translate(394.339 2761.221) rotate(90)"/></g><g transform="translate(119 -111)"><path class="g" d="M-2275.177,227.78h7.472" transform="translate(2438 262)"/><path class="g" d="M-2275.177,227.78h7.472" transform="translate(394.339 2761.221) rotate(90)"/></g><g transform="translate(-4.193 -70.193)"><path class="g" d="M-2275.177,227.78h5.859" transform="translate(2438 261.193)"/><path class="g" d="M0,0H5.859" transform="translate(165.753 486.044) rotate(90)"/></g><g transform="translate(-19.044 -230.044)"><path class="g" d="M-2275.177,227.78h5.56" transform="translate(2438 261.044)"/><path class="g" d="M0,0H5.56" transform="translate(165.603 486.044) rotate(90)"/></g><path class="h" d="M2539.084,421.908a13.249,13.249,0,0,1-.981-12.7l-12.224,7.909a13.382,13.382,0,0,1-18.47-3.911,13.248,13.248,0,0,1-1.02-12.614l-21.936,14.193a13.317,13.317,0,1,1-14.543-22.313l18.4-11.906a13.309,13.309,0,0,1-12.228-18.76l-13.243,8.569A13.317,13.317,0,1,1,2448.3,348.06l31.7-20.513a13.3,13.3,0,0,1-6.177-24.416l47.845-30.956a13.382,13.382,0,0,1,18.47,3.911,13.238,13.238,0,0,1,1.4,11.642l29.93-19.365a13.317,13.317,0,1,1,14.543,22.313l-13.312,8.613a13.31,13.31,0,0,1,12.229,18.759l18.331-11.861a13.318,13.318,0,1,1,14.544,22.314l-14.662,9.487a13.3,13.3,0,0,1,7.225,24.46l-12.293,7.954a13.3,13.3,0,0,1,7.321,24.461l-47.845,30.956a13.379,13.379,0,0,1-18.469-3.911Z" transform="translate(-2336.215 -9.215)"/></g></svg>