<svg xmlns="http://www.w3.org/2000/svg" width="207.795" height="181.209" viewBox="0 0 207.795 181.209"><defs><style>.a{fill:#98a2c1;}.b,.d,.f{fill:none;}.c{fill:rgba(180,187,206,0.39);}.c,.d,.e,.f{stroke:#b4bbce;}.c,.d,.e{stroke-width:2.5px;}.e{fill:#eff0f4;}.f{stroke-linecap:round;stroke-width:3px;}.g{fill:rgba(180,187,206,0.22);}.h{stroke:none;}</style></defs><g transform="translate(-103 -242)"><g transform="translate(148.381 279.765)"><g transform="translate(3 2)"><path class="a" d="M91.155,94.868a48.63,48.63,0,0,0,2.75-63.16c3.464-3.18,8.526-9.18,8.526-17.053a12.655,12.655,0,1,0-25.31,0,18.282,18.282,0,0,0,.362,3.493,48.56,48.56,0,0,0-49.811,3.41A12.655,12.655,0,0,0,3,25.5c0,7.342,4.415,13.063,7.813,16.381A48.779,48.779,0,0,0,90.889,95.145a1.678,1.678,0,0,0,.266-.277Zm-9.78-7.1a70.192,70.192,0,0,0,4.756-24.3h14.446A45,45,0,0,1,89.353,91.471a53.749,53.749,0,0,0-7.978-3.7ZM21.5,91.471a45,45,0,0,1-11.225-28H21.556A12.575,12.575,0,0,0,19.27,70.7c0,8.264,5.584,14.463,9.025,17.5a52.563,52.563,0,0,0-6.794,3.27ZM28.31,25.552A44.966,44.966,0,0,1,40.7,18.909a41.291,41.291,0,0,0-9.726,13.334q-1.79-.653-3.476-1.4a18.621,18.621,0,0,0,.808-5.288Zm20.416,53.98a39.206,39.206,0,0,0,3.99.2c.306,0,.6-.038.9-.045V83.4A79.455,79.455,0,0,0,38.6,85.125,22.272,22.272,0,0,0,44.58,70.7a12.577,12.577,0,0,0-2.287-7.234l11.326,0v12.61c-.3,0-.6.045-.9.045A35.614,35.614,0,0,1,49.1,75.94a1.808,1.808,0,1,0-.362,3.6Zm-16.8-17.874A9.05,9.05,0,0,1,40.964,70.7c0,7.86-6.494,13.8-9.039,15.822-2.545-2.025-9.039-7.954-9.039-15.822A9.05,9.05,0,0,1,31.925,61.658Zm25.31,1.808H79.682A35.3,35.3,0,0,1,57.235,75.792ZM82.307,59.85H57.235V39.915a76.852,76.852,0,0,0,20.79-3.227,67.157,67.157,0,0,1,4.5,22.835C82.443,59.632,82.378,59.742,82.307,59.85ZM53.619,36.3c-1.857-.043-3.7-.139-5.521-.309a35.584,35.584,0,0,1,5.521-5.319Zm3.616,0v-8.09c0-2.713.057-2.237,0-4.149v-7.49c7.794.861,14.7,7.231,19.317,16.791A73.415,73.415,0,0,1,57.235,36.3ZM53.619,16.575v9.65a39.243,39.243,0,0,0-9.712,9.263,68.842,68.842,0,0,1-9.581-2.137c4.632-9.545,11.528-15.914,19.293-16.777ZM41.7,38.782a37.783,37.783,0,0,0,3.916.575c2.627.318,5.3.506,8,.564V59.85H38.41a12.512,12.512,0,0,0-10.026-1.294,66.669,66.669,0,0,1,4.478-21.875,72.025,72.025,0,0,0,8.84,2.1Zm11.917,48.24v19.72c-7.481-.851-14.493-6.946-19.27-16.773a73.665,73.665,0,0,1,19.27-2.947Zm3.616,19.72V87.022a73.677,73.677,0,0,1,19.3,2.956c-4.621,9.549-11.518,15.905-19.3,16.764Zm0-23.337V79.445a38.919,38.919,0,0,0,25.19-13.629,66.284,66.284,0,0,1-4.4,20.8A76.455,76.455,0,0,0,57.235,83.4ZM100.543,59.85H86.556a38.458,38.458,0,0,0,5-18.418,1.808,1.808,0,0,0-1.781-1.83,1.871,1.871,0,0,0-1.833,1.783,34.815,34.815,0,0,1-2.254,11.751,67.548,67.548,0,0,0-4.321-17.558,55.073,55.073,0,0,0,5.8-2.54c.88.714,1.5,1.141,1.6,1.209a1.808,1.808,0,0,0,2.007,0l.333-.233a45.176,45.176,0,0,1,9.43,25.836ZM89.776,5.616a9.05,9.05,0,0,1,9.039,9.039c0,7.86-6.494,13.8-9.039,15.822-2.545-2.025-9.039-7.954-9.039-15.822a9.05,9.05,0,0,1,9.039-9.039ZM84.312,30.4c-1.414.667-2.869,1.3-4.4,1.855a41.343,41.343,0,0,0-9.592-13.248A44.97,44.97,0,0,1,79.2,23.244,28.009,28.009,0,0,0,84.312,30.4Zm-77.7-4.9a9.039,9.039,0,0,1,18.078,0c0,7.86-6.494,13.8-9.039,15.822C13.109,39.3,6.616,33.362,6.616,25.5Zm8.036,19.582a1.808,1.808,0,0,0,2.007,0,30.979,30.979,0,0,0,9.518-10.878q1.627.723,3.343,1.352A69.914,69.914,0,0,0,24.746,59.85H10.284a44.653,44.653,0,0,1,3.382-15.486c.542.41.9.662.985.72Zm9.431,49.09A50.8,50.8,0,0,1,30.9,91.126,40.8,40.8,0,0,0,40.449,104.3,45.246,45.246,0,0,1,24.083,94.174ZM79.917,91.1a50.872,50.872,0,0,1,6.853,3.073,45.284,45.284,0,0,1-16.426,10.138A41.365,41.365,0,0,0,79.917,91.1Z" transform="translate(-3 -2)"/><path class="a" d="M58.847,11.423a5.423,5.423,0,1,0-5.423,5.423A5.423,5.423,0,0,0,58.847,11.423Zm-7.231,0a1.808,1.808,0,1,1,1.808,1.808A1.808,1.808,0,0,1,51.616,11.423Z" transform="translate(33.352 1.231)"/><path class="a" d="M17.847,17.423a5.423,5.423,0,1,0-5.423,5.423A5.423,5.423,0,0,0,17.847,17.423Zm-7.231,0a1.808,1.808,0,1,1,1.808,1.808A1.808,1.808,0,0,1,10.616,17.423Z" transform="translate(0.231 6.078)"/><path class="a" d="M17.927,14.655a1.808,1.808,0,0,0,1.182-.441,35.072,35.072,0,0,1,41.777-3.149,1.808,1.808,0,0,0,1.929-3.057,38.687,38.687,0,0,0-46.072,3.471,1.808,1.808,0,0,0,1.184,3.176Z" transform="translate(7.596 -2)"/><path class="a" d="M26.847,42.423a5.423,5.423,0,1,0-5.423,5.423A5.423,5.423,0,0,0,26.847,42.423Zm-7.231,0a1.808,1.808,0,1,1,1.808,1.808A1.808,1.808,0,0,1,19.616,42.423Z" transform="translate(7.502 26.274)"/></g></g><g transform="translate(2)"><path class="b" d="M2539.084,421.908a13.249,13.249,0,0,1-.981-12.7l-12.224,7.909a13.382,13.382,0,0,1-18.47-3.911,13.248,13.248,0,0,1-1.02-12.614l-21.936,14.193a13.317,13.317,0,1,1-14.543-22.313l18.4-11.906a13.309,13.309,0,0,1-12.228-18.76l-13.243,8.569A13.317,13.317,0,1,1,2448.3,348.06l31.7-20.513a13.3,13.3,0,0,1-6.177-24.416l47.845-30.956a13.382,13.382,0,0,1,18.47,3.911,13.238,13.238,0,0,1,1.4,11.642l29.93-19.365a13.317,13.317,0,1,1,14.543,22.313l-13.312,8.613a13.31,13.31,0,0,1,12.229,18.759l18.331-11.861a13.318,13.318,0,1,1,14.544,22.314l-14.662,9.487a13.3,13.3,0,0,1,7.225,24.46l-12.293,7.954a13.3,13.3,0,0,1,7.321,24.461l-47.845,30.956a13.379,13.379,0,0,1-18.469-3.911Z" transform="translate(-2338.456 -12.167)"/><g class="c" transform="translate(249 396)"><circle class="h" cx="7" cy="7" r="7"/><circle class="b" cx="7" cy="7" r="5.75"/></g><g class="d" transform="translate(198 242)"><circle class="h" cx="7" cy="7" r="7"/><circle class="b" cx="7" cy="7" r="5.75"/></g><g class="c" transform="translate(115 321)"><circle class="h" cx="8" cy="8" r="8"/><circle class="b" cx="8" cy="8" r="6.75"/></g><g class="e" transform="translate(290 319)"><circle class="h" cx="5" cy="5" r="5"/><circle class="b" cx="5" cy="5" r="3.75"/></g><g class="d" transform="translate(101 393)"><circle class="h" cx="5" cy="5" r="5"/><circle class="b" cx="5" cy="5" r="3.75"/></g><g transform="translate(137 -209)"><path class="f" d="M-2275.177,227.78h7.472" transform="translate(2438 262)"/><path class="f" d="M-2275.177,227.78h7.472" transform="translate(394.339 2761.221) rotate(90)"/></g><g transform="translate(119 -111)"><path class="f" d="M-2275.177,227.78h7.472" transform="translate(2438 262)"/><path class="f" d="M-2275.177,227.78h7.472" transform="translate(394.339 2761.221) rotate(90)"/></g><g transform="translate(-4.193 -70.193)"><path class="f" d="M-2275.177,227.78h5.859" transform="translate(2438 261.193)"/><path class="f" d="M0,0H5.859" transform="translate(165.753 486.044) rotate(90)"/></g><g transform="translate(-19.044 -230.044)"><path class="f" d="M-2275.177,227.78h5.56" transform="translate(2438 261.044)"/><path class="f" d="M0,0H5.56" transform="translate(165.603 486.044) rotate(90)"/></g><path class="g" d="M2539.084,421.908a13.249,13.249,0,0,1-.981-12.7l-12.224,7.909a13.382,13.382,0,0,1-18.47-3.911,13.248,13.248,0,0,1-1.02-12.614l-21.936,14.193a13.317,13.317,0,1,1-14.543-22.313l18.4-11.906a13.309,13.309,0,0,1-12.228-18.76l-13.243,8.569A13.317,13.317,0,1,1,2448.3,348.06l31.7-20.513a13.3,13.3,0,0,1-6.177-24.416l47.845-30.956a13.382,13.382,0,0,1,18.47,3.911,13.238,13.238,0,0,1,1.4,11.642l29.93-19.365a13.317,13.317,0,1,1,14.543,22.313l-13.312,8.613a13.31,13.31,0,0,1,12.229,18.759l18.331-11.861a13.318,13.318,0,1,1,14.544,22.314l-14.662,9.487a13.3,13.3,0,0,1,7.225,24.46l-12.293,7.954a13.3,13.3,0,0,1,7.321,24.461l-47.845,30.956a13.379,13.379,0,0,1-18.469-3.911Z" transform="translate(-2336.215 -9.215)"/></g></g></svg>