<svg xmlns="http://www.w3.org/2000/svg" width="207.795" height="181.209" viewBox="0 0 207.795 181.209"><defs><style>.a{fill:#8f9bbe;}.b,.d,.f{fill:none;}.c{fill:rgba(180,187,206,0.39);}.c,.d,.e,.f{stroke:#b4bbce;}.c,.d,.e{stroke-width:2.5px;}.e{fill:#eff0f4;}.f{stroke-linecap:round;stroke-width:3px;}.g{fill:rgba(180,187,206,0.22);}.h{stroke:none;}</style></defs><g transform="translate(-101 -242)"><g transform="translate(148.245 280.801)"><g transform="translate(8 2)"><path class="a" d="M95.056,73.573V56.866a18.655,18.655,0,0,0,0-35.113V4.073A2.073,2.073,0,0,0,92.984,2H10.073A2.073,2.073,0,0,0,8,4.073v99.493a2.073,2.073,0,0,0,2.073,2.073H50.678A29.019,29.019,0,1,0,95.056,73.573Zm8.291-34.263A14.509,14.509,0,1,1,88.838,24.8,14.509,14.509,0,0,1,103.348,39.31Zm-91.2,62.183V6.146H90.911V20.779a17.121,17.121,0,0,0-2.073-.124,18.655,18.655,0,1,0,0,37.31,17.122,17.122,0,0,0,2.073-.124V71.168A28.951,28.951,0,0,0,49.455,97.348a30.493,30.493,0,0,0,.332,4.146Zm66.329,20.728a24.873,24.873,0,1,1,24.873-24.873A24.873,24.873,0,0,1,78.474,122.221Z" transform="translate(-8 -2)"/><path class="a" d="M47.622,51a14.509,14.509,0,0,0-10.364,4.146,2.073,2.073,0,0,0,2.923,2.923,10.364,10.364,0,0,1,14.675,0,2.107,2.107,0,0,0,3.13-2.819A14.509,14.509,0,0,0,47.622,51Z" transform="translate(22.852 50.565)"/><path class="a" d="M52.427,42.264l-8.291,4.146a2.071,2.071,0,0,0,.933,3.918A1.928,1.928,0,0,0,46,50.1l8.291-4.146a2.073,2.073,0,1,0-1.865-3.69Z" transform="translate(29.551 40.875)"/><circle class="a" cx="1.5" cy="1.5" r="1.5" transform="translate(78.755 91.199)"/><path class="a" d="M45.434,50.327a2.071,2.071,0,0,0,.933-3.918l-8.291-4.146a2.073,2.073,0,1,0-1.865,3.69L44.5,50.1A1.928,1.928,0,0,0,45.434,50.327Z" transform="translate(20.894 40.875)"/><circle class="a" cx="1.5" cy="1.5" r="1.5" transform="translate(58.755 91.199)"/><path class="a" d="M20.073,19.437H61.528A2.073,2.073,0,0,0,63.6,17.364V9.073A2.073,2.073,0,0,0,61.528,7H20.073A2.073,2.073,0,0,0,18,9.073v8.291A2.073,2.073,0,0,0,20.073,19.437Zm2.073-8.291h37.31v4.146H22.146Z" transform="translate(2.728 3.364)"/><path class="a" d="M23.073,16a2.073,2.073,0,0,0,0,4.146H50.019a2.073,2.073,0,1,0,0-4.146Z" transform="translate(5.946 13.019)"/><path class="a" d="M17.073,25.146H56.455a2.073,2.073,0,1,0,0-4.146H17.073a2.073,2.073,0,1,0,0,4.146Z" transform="translate(-0.491 18.383)"/><path class="a" d="M17.073,30.146H60.6A2.073,2.073,0,0,0,60.6,26H17.073a2.073,2.073,0,1,0,0,4.146Z" transform="translate(-0.491 23.747)"/><path class="a" d="M17.073,35.146h37.31a2.073,2.073,0,1,0,0-4.146H17.073a2.073,2.073,0,1,0,0,4.146Z" transform="translate(-0.491 29.11)"/><path class="a" d="M39.873,36h-22.8a2.073,2.073,0,1,0,0,4.146h22.8a2.073,2.073,0,0,0,0-4.146Z" transform="translate(-0.491 34.474)"/><path class="a" d="M35.728,41H17.073a2.073,2.073,0,0,0,0,4.146H35.728a2.073,2.073,0,0,0,0-4.146Z" transform="translate(-0.491 39.838)"/><path class="a" d="M44.661,24.868a2.081,2.081,0,0,0-2.943,2.943L46.4,32.054l-.021-2.923a2.081,2.081,0,0,0,2.943,2.943c6.062-6,5.659-5.93,10.12-10.454A2.081,2.081,0,1,0,56.5,18.677l-8.648,8.983Z" transform="translate(29.723 13.197)"/></g></g><path class="b" d="M2539.084,421.908a13.249,13.249,0,0,1-.981-12.7l-12.224,7.909a13.382,13.382,0,0,1-18.47-3.911,13.248,13.248,0,0,1-1.02-12.614l-21.936,14.193a13.317,13.317,0,1,1-14.543-22.313l18.4-11.906a13.309,13.309,0,0,1-12.228-18.76l-13.243,8.569A13.317,13.317,0,1,1,2448.3,348.06l31.7-20.513a13.3,13.3,0,0,1-6.177-24.416l47.845-30.956a13.382,13.382,0,0,1,18.47,3.911,13.238,13.238,0,0,1,1.4,11.642l29.93-19.365a13.317,13.317,0,1,1,14.543,22.313l-13.312,8.613a13.31,13.31,0,0,1,12.229,18.759l18.331-11.861a13.318,13.318,0,1,1,14.544,22.314l-14.662,9.487a13.3,13.3,0,0,1,7.225,24.46l-12.293,7.954a13.3,13.3,0,0,1,7.321,24.461l-47.845,30.956a13.379,13.379,0,0,1-18.469-3.911Z" transform="translate(-2338.456 -12.167)"/><g class="c" transform="translate(249 396)"><circle class="h" cx="7" cy="7" r="7"/><circle class="b" cx="7" cy="7" r="5.75"/></g><g class="d" transform="translate(198 242)"><circle class="h" cx="7" cy="7" r="7"/><circle class="b" cx="7" cy="7" r="5.75"/></g><g class="c" transform="translate(115 321)"><circle class="h" cx="8" cy="8" r="8"/><circle class="b" cx="8" cy="8" r="6.75"/></g><g class="e" transform="translate(290 319)"><circle class="h" cx="5" cy="5" r="5"/><circle class="b" cx="5" cy="5" r="3.75"/></g><g class="d" transform="translate(101 393)"><circle class="h" cx="5" cy="5" r="5"/><circle class="b" cx="5" cy="5" r="3.75"/></g><g transform="translate(137 -209)"><path class="f" d="M-2275.177,227.78h7.472" transform="translate(2438 262)"/><path class="f" d="M-2275.177,227.78h7.472" transform="translate(394.339 2761.221) rotate(90)"/></g><g transform="translate(119 -111)"><path class="f" d="M-2275.177,227.78h7.472" transform="translate(2438 262)"/><path class="f" d="M-2275.177,227.78h7.472" transform="translate(394.339 2761.221) rotate(90)"/></g><g transform="translate(-4.193 -70.193)"><path class="f" d="M-2275.177,227.78h5.859" transform="translate(2438 261.193)"/><path class="f" d="M0,0H5.859" transform="translate(165.753 486.044) rotate(90)"/></g><g transform="translate(-19.044 -230.044)"><path class="f" d="M-2275.177,227.78h5.56" transform="translate(2438 261.044)"/><path class="f" d="M0,0H5.56" transform="translate(165.603 486.044) rotate(90)"/></g><path class="g" d="M2539.084,421.908a13.249,13.249,0,0,1-.981-12.7l-12.224,7.909a13.382,13.382,0,0,1-18.47-3.911,13.248,13.248,0,0,1-1.02-12.614l-21.936,14.193a13.317,13.317,0,1,1-14.543-22.313l18.4-11.906a13.309,13.309,0,0,1-12.228-18.76l-13.243,8.569A13.317,13.317,0,1,1,2448.3,348.06l31.7-20.513a13.3,13.3,0,0,1-6.177-24.416l47.845-30.956a13.382,13.382,0,0,1,18.47,3.911,13.238,13.238,0,0,1,1.4,11.642l29.93-19.365a13.317,13.317,0,1,1,14.543,22.313l-13.312,8.613a13.31,13.31,0,0,1,12.229,18.759l18.331-11.861a13.318,13.318,0,1,1,14.544,22.314l-14.662,9.487a13.3,13.3,0,0,1,7.225,24.46l-12.293,7.954a13.3,13.3,0,0,1,7.321,24.461l-47.845,30.956a13.379,13.379,0,0,1-18.469-3.911Z" transform="translate(-2336.215 -9.215)"/></g></svg>