<svg xmlns="http://www.w3.org/2000/svg" width="207.795" height="181.209" viewBox="0 0 207.795 181.209"><defs><style>.a{fill:#8f9bbe;}.b,.d,.f{fill:none;}.c{fill:rgba(180,187,206,0.39);}.c,.d,.e,.f{stroke:#b4bbce;}.c,.d,.e{stroke-width:2.5px;}.e{fill:#eff0f4;}.f{stroke-linecap:round;stroke-width:3px;}.g{fill:rgba(180,187,206,0.22);}.h{stroke:none;}</style></defs><g transform="translate(-101 -242)"><g transform="translate(146.202 277.78)"><g transform="translate(83.653 80.653)"><path class="a" d="M50,71.47v0Z" transform="translate(-50 -47)"/><g transform="translate(6.991 10.487)"><path class="a" d="M60.991,53h0Z" transform="translate(-54 -53)"/></g></g><g transform="translate(5 2)"><path class="a" d="M90.644,2H30.618a8.68,8.68,0,0,0-6.179,2.559L7.559,21.439A8.68,8.68,0,0,0,5,27.618V98.131a8.75,8.75,0,0,0,8.739,8.739h76.9a8.75,8.75,0,0,0,8.739-8.739V10.739A8.75,8.75,0,0,0,90.644,2ZM73.166,5.5H83.653V35.209A1.748,1.748,0,0,1,81.9,36.957H71.372a8.648,8.648,0,0,0,1.793-5.244ZM26.911,7.03A5.278,5.278,0,0,1,30.618,5.5H69.67V31.713a5.244,5.244,0,0,1-5.244,5.244H22.478a1.748,1.748,0,0,1-1.748-1.748v-22ZM8.5,82.4h3.5v6.991H8.5ZM81.9,92.887H22.478V62.939H81.9ZM22.478,103.374V96.383H81.9v6.991Zm68.166,0H85.4V61.192a1.748,1.748,0,0,0-1.748-1.748H20.731a1.748,1.748,0,0,0-1.748,1.748v42.183H13.739A5.244,5.244,0,0,1,8.5,98.131V92.887h5.244a1.748,1.748,0,0,0,1.748-1.748V80.653A1.748,1.748,0,0,0,13.739,78.9H8.5V27.618a5.278,5.278,0,0,1,1.535-3.707l7.2-7.2v18.5a5.244,5.244,0,0,0,5.244,5.244H81.9a5.244,5.244,0,0,0,5.243-5.244V5.5h3.5a5.244,5.244,0,0,1,5.243,5.244V78.9H90.644A1.748,1.748,0,0,0,88.9,80.653V91.14a1.748,1.748,0,0,0,1.748,1.748h5.243v5.244A5.244,5.244,0,0,1,90.644,103.374Zm5.243-13.983h-3.5V82.4h3.5Z" transform="translate(-5 -2)"/><path class="a" d="M20.5,27.974h6.991a3.5,3.5,0,0,0,3.5-3.5V10.5a3.5,3.5,0,0,0-3.5-3.5H20.5A3.5,3.5,0,0,0,17,10.5V24.478A3.5,3.5,0,0,0,20.5,27.974Zm0-17.478h6.991V24.478H20.5Z" transform="translate(3.974 1.739)"/><path class="a" d="M20.748,51.5H62.7a1.748,1.748,0,1,0,0-3.5H20.748a1.748,1.748,0,1,0,0,3.5Z" transform="translate(5.47 32.4)"/><path class="a" d="M20.748,45.5H62.7a1.748,1.748,0,1,0,0-3.5H20.748a1.748,1.748,0,1,0,0,3.5Z" transform="translate(5.47 27.913)"/></g></g><path class="b" d="M2539.084,421.908a13.249,13.249,0,0,1-.981-12.7l-12.224,7.909a13.382,13.382,0,0,1-18.47-3.911,13.248,13.248,0,0,1-1.02-12.614l-21.936,14.193a13.317,13.317,0,1,1-14.543-22.313l18.4-11.906a13.309,13.309,0,0,1-12.228-18.76l-13.243,8.569A13.317,13.317,0,1,1,2448.3,348.06l31.7-20.513a13.3,13.3,0,0,1-6.177-24.416l47.845-30.956a13.382,13.382,0,0,1,18.47,3.911,13.238,13.238,0,0,1,1.4,11.642l29.93-19.365a13.317,13.317,0,1,1,14.543,22.313l-13.312,8.613a13.31,13.31,0,0,1,12.229,18.759l18.331-11.861a13.318,13.318,0,1,1,14.544,22.314l-14.662,9.487a13.3,13.3,0,0,1,7.225,24.46l-12.293,7.954a13.3,13.3,0,0,1,7.321,24.461l-47.845,30.956a13.379,13.379,0,0,1-18.469-3.911Z" transform="translate(-2338.456 -12.167)"/><g class="c" transform="translate(249 396)"><circle class="h" cx="7" cy="7" r="7"/><circle class="b" cx="7" cy="7" r="5.75"/></g><g class="d" transform="translate(198 242)"><circle class="h" cx="7" cy="7" r="7"/><circle class="b" cx="7" cy="7" r="5.75"/></g><g class="c" transform="translate(115 321)"><circle class="h" cx="8" cy="8" r="8"/><circle class="b" cx="8" cy="8" r="6.75"/></g><g class="e" transform="translate(290 319)"><circle class="h" cx="5" cy="5" r="5"/><circle class="b" cx="5" cy="5" r="3.75"/></g><g class="d" transform="translate(101 393)"><circle class="h" cx="5" cy="5" r="5"/><circle class="b" cx="5" cy="5" r="3.75"/></g><g transform="translate(137 -209)"><path class="f" d="M-2275.177,227.78h7.472" transform="translate(2438 262)"/><path class="f" d="M-2275.177,227.78h7.472" transform="translate(394.339 2761.221) rotate(90)"/></g><g transform="translate(119 -111)"><path class="f" d="M-2275.177,227.78h7.472" transform="translate(2438 262)"/><path class="f" d="M-2275.177,227.78h7.472" transform="translate(394.339 2761.221) rotate(90)"/></g><g transform="translate(-4.193 -70.193)"><path class="f" d="M-2275.177,227.78h5.859" transform="translate(2438 261.193)"/><path class="f" d="M0,0H5.859" transform="translate(165.753 486.044) rotate(90)"/></g><g transform="translate(-19.044 -230.044)"><path class="f" d="M-2275.177,227.78h5.56" transform="translate(2438 261.044)"/><path class="f" d="M0,0H5.56" transform="translate(165.603 486.044) rotate(90)"/></g><path class="g" d="M2539.084,421.908a13.249,13.249,0,0,1-.981-12.7l-12.224,7.909a13.382,13.382,0,0,1-18.47-3.911,13.248,13.248,0,0,1-1.02-12.614l-21.936,14.193a13.317,13.317,0,1,1-14.543-22.313l18.4-11.906a13.309,13.309,0,0,1-12.228-18.76l-13.243,8.569A13.317,13.317,0,1,1,2448.3,348.06l31.7-20.513a13.3,13.3,0,0,1-6.177-24.416l47.845-30.956a13.382,13.382,0,0,1,18.47,3.911,13.238,13.238,0,0,1,1.4,11.642l29.93-19.365a13.317,13.317,0,1,1,14.543,22.313l-13.312,8.613a13.31,13.31,0,0,1,12.229,18.759l18.331-11.861a13.318,13.318,0,1,1,14.544,22.314l-14.662,9.487a13.3,13.3,0,0,1,7.225,24.46l-12.293,7.954a13.3,13.3,0,0,1,7.321,24.461l-47.845,30.956a13.379,13.379,0,0,1-18.469-3.911Z" transform="translate(-2336.215 -9.215)"/></g></svg>