<svg xmlns="http://www.w3.org/2000/svg" width="56" height="49" viewBox="0 0 56 49"><defs><style>.a{fill:#fcc600;}.b{fill:#fff;}</style></defs><g transform="translate(1 -65)"><g transform="translate(-40.796 -164.796)"><rect class="a" width="34" height="34" rx="9" transform="translate(50.796 229.796)"/><ellipse class="a" cx="13" cy="2" rx="13" ry="2" transform="translate(54.796 259.796)"/></g><g transform="translate(19 75)"><path class="b" d="M4.2,16.923l-.016.015-.016-.015H2.771A.77.77,0,0,1,2,16.155V3.768A.775.775,0,0,1,2.771,3h14a.77.77,0,0,1,.771.768V16.155a.775.775,0,0,1-.771.768Zm11.79-4.641V4.547H3.554V15.376l7.771-7.735Zm0,2.187L11.325,9.829,5.752,15.376H15.987ZM6.662,9.188A1.547,1.547,0,1,1,8.217,7.641,1.551,1.551,0,0,1,6.662,9.188Z" transform="translate(-2 -3)"/></g></g></svg>