<svg xmlns="http://www.w3.org/2000/svg" width="11.355" height="10.184" viewBox="0 0 11.355 10.184"><defs><style>.a{fill:#434a5e;}</style></defs><path class="a" d="M3.606,13.172l-.011.011-.012-.011H2.563A.562.562,0,0,1,2,12.611V3.561A.566.566,0,0,1,2.563,3H12.792a.562.562,0,0,1,.563.561v9.05a.566.566,0,0,1-.563.561Zm8.614-3.391V4.13H3.135v7.912L8.813,6.391Zm0,1.6L8.813,7.989,4.741,12.042h7.478ZM5.406,7.521a1.13,1.13,0,1,1,1.135-1.13A1.133,1.133,0,0,1,5.406,7.521Z" transform="translate(-2 -3)"/></svg>