<svg xmlns="http://www.w3.org/2000/svg" width="13.209" height="13.209" viewBox="0 0 13.209 13.209"><defs><style>.a{fill:none;}.b{fill:#675ddd;}</style></defs><path class="a" d="M0,0H13.209V13.209H0Z"/><path class="b" d="M7.162,3.391a3.869,3.869,0,0,1,1.583,0l.926-.927.779.779-.578.578a3.869,3.869,0,0,1,1.563,1.69h1.472v1.1H11.767a3.944,3.944,0,0,1,.039.55v.55h1.1v1.1h-1.1v.55a3.944,3.944,0,0,1-.039.55h1.139v1.1H11.435a3.853,3.853,0,0,1-6.963,0H3v-1.1H4.139a3.886,3.886,0,0,1-.039-.55v-.55H3v-1.1H4.1v-.55a3.944,3.944,0,0,1,.039-.55H3v-1.1H4.472A3.869,3.869,0,0,1,6.035,3.82l-.578-.578.779-.778.926.927ZM7.953,4.41A2.752,2.752,0,0,0,5.2,7.162v2.2a2.752,2.752,0,1,0,5.5,0v-2.2A2.752,2.752,0,0,0,7.953,4.41ZM6.3,8.813H9.6v1.1H6.3Zm0-2.2H9.6v1.1H6.3Z" transform="translate(-1.349 -1.108)"/></svg>