<svg xmlns="http://www.w3.org/2000/svg" width="17.3" height="17.3" viewBox="0 0 17.3 17.3"><defs><style>.a{fill:none;}.b{fill:#56b0ff;}</style></defs><path class="a" d="M0,0H17.3V17.3H0Z"/><path class="b" d="M16.472,5.107a6.044,6.044,0,0,1-1.731.474,3.025,3.025,0,0,0,1.326-1.668,6.025,6.025,0,0,1-1.915.732A3.015,3.015,0,0,0,9.016,7.394,8.559,8.559,0,0,1,2.8,4.244a3.019,3.019,0,0,0,.933,4.025,3,3,0,0,1-1.365-.377V7.93a3.017,3.017,0,0,0,2.418,2.956,3.035,3.035,0,0,1-1.362.052,3.017,3.017,0,0,0,2.816,2.094A6.051,6.051,0,0,1,1.779,14.28,8.528,8.528,0,0,0,6.4,15.635a8.519,8.519,0,0,0,8.578-8.578c0-.13,0-.261-.009-.389a6.124,6.124,0,0,0,1.5-1.561Z" transform="translate(-0.497 -1.03)"/></svg>