<svg xmlns="http://www.w3.org/2000/svg" width="18" height="18" viewBox="0 0 18 18"><defs><style>.a{fill:none;}.b{fill:#52596c;}</style></defs><path class="a" d="M0,0H18V18H0Z"/><path class="b" d="M4,16.972a6.193,6.193,0,0,1,6.3-6.085,6.193,6.193,0,0,1,6.3,6.085H15.018A4.645,4.645,0,0,0,10.3,12.409a4.645,4.645,0,0,0-4.722,4.563Zm6.3-6.845A4.644,4.644,0,0,1,5.574,5.563,4.644,4.644,0,0,1,10.3,1a4.644,4.644,0,0,1,4.722,4.563A4.644,4.644,0,0,1,10.3,10.127Zm0-1.521a3.1,3.1,0,0,0,3.148-3.042A3.1,3.1,0,0,0,10.3,2.521,3.1,3.1,0,0,0,7.148,5.563,3.1,3.1,0,0,0,10.3,8.606Z" transform="translate(-1.296 -0.324)"/></svg>