<svg xmlns="http://www.w3.org/2000/svg" width="16.09" height="16.09" viewBox="0 0 16.09 16.09"><defs><style>.a{fill:none;}.b{fill:#7481a5;}</style></defs><path class="a" d="M0,0H16.09V16.09H0Z"/><path class="b" d="M5.011,5.693v-.67a4.022,4.022,0,0,1,8.045,0v.67H14.4a.67.67,0,0,1,.67.67v8.045a.67.67,0,0,1-.67.67H3.67a.67.67,0,0,1-.67-.67V6.363a.67.67,0,0,1,.67-.67Zm8.715,1.341H4.341v6.7h9.386ZM8.363,10.877a1.341,1.341,0,1,1,1.341,0V12.4H8.363ZM6.352,5.693h5.363v-.67a2.682,2.682,0,0,0-5.363,0Z" transform="translate(-0.989 -0.33)"/></svg>