<svg xmlns="http://www.w3.org/2000/svg" width="16.271" height="16.271" viewBox="0 0 16.271 16.271"><defs><style>.a{fill:none;}.b{fill:#675ddd;}</style></defs><path class="a" d="M0,0H16.271V16.271H0Z"/><path class="b" d="M14.847,15.237H13.491V13.881a2.034,2.034,0,0,0-2.034-2.034H7.39a2.034,2.034,0,0,0-2.034,2.034v1.356H4V13.881a3.39,3.39,0,0,1,3.39-3.39h4.068a3.39,3.39,0,0,1,3.39,3.39Zm-5.424-6.1a4.068,4.068,0,1,1,4.068-4.068A4.068,4.068,0,0,1,9.424,9.135Zm0-1.356A2.712,2.712,0,1,0,6.712,5.068,2.712,2.712,0,0,0,9.424,7.779Z" transform="translate(-1.288 -0.322)"/></svg>