<svg xmlns="http://www.w3.org/2000/svg" width="13.209" height="13.209" viewBox="0 0 13.209 13.209"><defs><style>.a{fill:none;}.b{fill:#675ddd;}</style></defs><path class="a" d="M0,0H13.209V13.209H0Z"/><path class="b" d="M7.5,13.007a5.5,5.5,0,1,1,5.5-5.5A5.5,5.5,0,0,1,7.5,13.007Zm-1.26-1.284a9.852,9.852,0,0,1-.926-3.669H3.135a4.407,4.407,0,0,0,3.109,3.669ZM6.42,8.054A8.759,8.759,0,0,0,7.5,11.77,8.754,8.754,0,0,0,8.588,8.054H6.42Zm5.453,0H9.69a9.852,9.852,0,0,1-.926,3.669A4.407,4.407,0,0,0,11.873,8.054Zm-8.738-1.1H5.317a9.852,9.852,0,0,1,.926-3.669A4.407,4.407,0,0,0,3.135,6.953Zm3.285,0H8.587A8.754,8.754,0,0,0,7.5,3.237,8.754,8.754,0,0,0,6.42,6.953ZM8.764,3.284A9.852,9.852,0,0,1,9.69,6.953h2.182A4.407,4.407,0,0,0,8.764,3.284Z" transform="translate(-0.899 -0.899)"/></svg>